<?xml version="1.0" encoding="utf-8"?>
<!-- Generator: Adobe Illustrator 16.0.0, SVG Export Plug-In . SVG Version: 6.00 Build 0)  -->
<!DOCTYPE svg PUBLIC "-//W3C//DTD SVG 1.1//EN" "http://www.w3.org/Graphics/SVG/1.1/DTD/svg11.dtd">
<svg version="1.1" id="Layer_1" xmlns="http://www.w3.org/2000/svg" xmlns:xlink="http://www.w3.org/1999/xlink" x="0px" y="0px"
	 width="815.547px" height="785.99px" viewBox="0 0 815.547 785.99" enable-background="new 0 0 815.547 785.99"
	 xml:space="preserve">
<path fill="#202020" d="M402.446,496.891c-66.363,0-128.753-25.843-175.678-72.768c-46.925-46.925-72.767-109.315-72.767-175.678
	c0-66.362,25.842-128.753,72.767-175.678C273.693,25.843,336.083,0,402.446,0c66.361,0,128.753,25.843,175.678,72.767
	c46.925,46.925,72.769,109.316,72.769,175.678c0,66.363-25.844,128.753-72.769,175.678S468.809,496.891,402.446,496.891 M402.446,7
	c-64.493,0-125.125,25.114-170.729,70.717C186.114,123.32,161,183.952,161,248.445c0,64.494,25.114,125.125,70.717,170.728
	c45.604,45.604,106.235,70.718,170.729,70.718c64.493,0,125.125-25.114,170.729-70.718c45.604-45.603,70.718-106.235,70.718-170.728
	S618.778,123.32,573.175,77.717C527.572,32.114,466.939,7,402.446,7"/>
<path fill="#202020" d="M386.396,128.895c0-3.738,3.031-6.771,6.771-6.771c3.741,0,6.772,3.033,6.772,6.771
	c0,3.742-3.031,6.773-6.772,6.773C389.426,135.667,386.396,132.636,386.396,128.895"/>
<path fill="#202020" d="M376.642,141.25c0-3.646,2.955-6.602,6.602-6.602c3.648,0,6.603,2.956,6.603,6.602s-2.955,6.604-6.603,6.604
	C379.597,147.854,376.642,144.896,376.642,141.25"/>
<path fill="#202020" d="M372.032,127.105c0-2.988,2.424-5.414,5.414-5.414c2.99,0,5.414,2.426,5.414,5.414
	c0,2.992-2.424,5.414-5.414,5.414C374.456,132.519,372.032,130.097,372.032,127.105"/>
<path fill="#202020" d="M356.505,136.402c0-3.621,2.936-6.559,6.557-6.559s6.558,2.938,6.558,6.559c0,3.621-2.938,6.557-6.558,6.557
	C359.441,142.959,356.505,140.023,356.505,136.402"/>
<path fill="#202020" d="M345.974,157.018c-2.18,1.342-5.434,6.018-6.791,5.24c-1.439-0.822-1.166-3.687-1.756-6.17
	c-0.601-2.531,0.016-8.408,0.016-8.408c-0.049-4.299,3.435-7.783,7.734-7.783c4.301,0,7.785,3.484,7.785,7.783
	c0,1.91-1.357,4.68-1.754,5.109C350.812,153.218,348.499,155.464,345.974,157.018"/>
<path fill="#202020" d="M370.353,163.961c-1.822,1.801-3.941,7.086-5.441,6.635c-1.586-0.477-1.963-3.33-3.096-5.615
	c-1.156-2.332-1.877-8.198-1.877-8.198c-1.016-4.177,1.598-8.357,5.785-9.324c4.19-0.967,8.371,1.645,9.336,5.834
	c0.43,1.863-0.27,4.865-0.559,5.371C374.211,159.174,372.461,161.883,370.353,163.961"/>
<path fill="#202020" d="M394.497,167.303c-1.486,2.084-3.32,7.5-4.852,7.182c-1.625-0.336-2.265-3.864-3.593-6.041
	c-1.354-2.223-2.584-8.002-2.584-8.002c-1.375-4.075,0.861-8.465,4.951-9.795c4.09-1.326,8.48,0.91,9.808,5
	c0.592,1.816,0.155,4.869-0.089,5.4C397.895,161.578,396.438,164.585,394.497,167.303"/>
<path fill="#202020" d="M326.372,175.262c-1.824,2.582-4.68,11.738-6.406,10.869c-1.828-0.922-3.199-10.146-4.086-13.17
	c-0.906-3.084-0.528-10.373-0.528-10.373c-0.337-5.299,3.737-9.824,9.041-10.101c5.303-0.28,9.827,3.795,10.104,9.097
	c0.125,2.358-1.791,5.987-2.303,6.498C330.559,169.712,328.7,171.962,326.372,175.262"/>
<path fill="#202020" d="M352.769,184.771c-1.652,2.947-3.777,12.01-5.629,11.451c-1.963-0.59-4.424-7.851-5.822-10.674
	c-1.428-2.881-1.899-10.648-1.899-10.648c-1.013-5.268,1.973-10.324,7.149-11.52c5.174-1.193,10.338,2.032,11.533,7.207
	c0.529,2.299-0.48,5.645-1.064,6.809C355.651,180.171,354.558,181.58,352.769,184.771"/>
<path fill="#202020" d="M379.358,191.371c-1.414,2.828-3.736,12.816-5.627,12.422c-2.008-0.416-4.936-8.41-6.019-11.065
	c-1.213-2.974-2.528-10.205-2.528-10.205c-1.697-5.033,1.067-10.457,6.117-12.099c5.051-1.639,10.475,1.123,12.116,6.174
	c0.73,2.244,0.191,6.015-0.11,6.671C383.004,183.926,381.299,187.488,379.358,191.371"/>
<path fill="#202020" d="M307.546,205.734c-1.424,3.414-1.502,11.646-3.689,11.063c-2.911-0.778-8.555-11.512-9.897-14.946
	c-1.748-4.465-1.941-11.644-1.941-11.644c-0.397-6.202,4.216-11.787,10.422-12.114c6.207-0.324,11.501,4.442,11.826,10.649
	c0.144,2.758-2.098,7.004-2.696,7.601C309.659,198.255,309.485,201.074,307.546,205.734"/>
<path fill="#202020" d="M332.388,215.438c-1.932,3.449-4.432,11.521-6.598,10.869c-2.295-0.689-3.492-7.18-4.851-10.674
	c-1.365-3.508-2.137-11.84-2.137-11.84c-1.187-6.164,1.981-12.521,8.035-13.919c6.057-1.399,12.098,2.377,13.496,8.433
	c0.621,2.692-0.562,6.606-1.242,7.969C337.466,209.523,334.481,211.704,332.388,215.438"/>
<path fill="#202020" d="M363.454,221.699c-1.652,3.309-4.371,14.996-6.586,14.535c-2.346-0.488-5.773-9.84-7.041-12.945
	c-1.42-3.483-2.957-11.945-2.957-11.945c-1.988-5.889,1.246-12.237,7.156-14.157c5.912-1.92,12.258,1.315,14.178,7.225
	c0.855,2.625,0.223,7.039-0.129,7.807C367.724,212.986,365.727,217.156,363.454,221.699"/>
<path fill="#202020" d="M391.005,228.443c-1.656,3.307-2.832,10.939-5.047,10.48c-2.348-0.488-5.721-6.212-6.988-9.316
	c-1.42-3.482-3.299-11.451-3.299-11.451c-1.986-5.891,0.797-12.922,6.709-14.842c5.91-1.92,12.258,1.315,14.178,7.225
	c0.853,2.627,0.222,7.039-0.129,7.806C396.075,219.113,393.275,223.9,391.005,228.443"/>
<path fill="#202020" d="M271.274,216.363c-0.023-6.648,5.365-12.037,12.014-12.037c6.646,0,12.037,5.389,12.037,12.037
	c0,2.561-0.397,5.092-1.365,7.227c0,0-3.899,9.98-0.592,22.75c3.308,12.767,7.369,20.615,13.781,28.531s13.385,11.301,12.617,13.004
	c-0.769,1.707-23.867-7.03-38.043-35.324C268.51,226.179,271.274,216.363,271.274,216.363"/>
<path fill="#202020" d="M298.737,233.346c-0.719-6.609,4.078-12.533,10.689-13.229c6.614-0.693,12.536,4.102,13.231,10.713
	c0.266,2.549,0.574,5.286-0.168,7.51c0,0-1.164,11.062,2.912,22.127c4.561,12.375,8.322,19.193,15.527,26.397
	c7.205,7.201,8.35,7.345,7.764,9.121c-0.586,1.777-18.73-2.059-36.684-25.035C297.454,252.316,298.737,233.346,298.737,233.346"/>
<path fill="#202020" d="M329.259,242.617c-0.834-6.596,3.857-12.602,10.457-13.412c6.598-0.811,12.605,3.883,13.414,10.482
	c0.313,2.541,0.027,5.059-0.035,7.512c0,0-0.512,10.934,2.973,22.195c4.722,15.266,14.75,26.59,14.168,29.116
	c-0.393,1.701-10.286-0.971-26.979-20.77C329.931,261.933,329.259,242.617,329.259,242.617"/>
<path fill="#202020" d="M359.165,248.162c-0.836-6.594,3.855-12.6,10.455-13.41c6.6-0.811,12.604,3.881,13.416,10.478
	c0.311,2.543,0.025,5.061-0.037,7.512c0,0,0.436,17.623,5.48,31.598c0.104,0.287-13.002,9.316-13.002,9.316
	C359.95,271.529,359.165,248.162,359.165,248.162"/>
<path fill="#202020" d="M294.923,280.889c0,0-5.25-4.035-9.705-10.094c-4.457-6.056-18.779-34.849-35.512-52.252
	c-19.408-20.185-50.074-29.695-59.592-28.877c-4.119,0.354-5.394,1.801-6.398,4.811c-0.971,2.91,2.637,6.766,7.174,10.328
	c11.07,8.691,21.537,30.514,27.172,41.535c5.636,11.022,11.445,21.199,13.974,24.455c2.532,3.26,25.596,4.807,32.809,5.975
	C272.027,277.936,294.923,280.889,294.923,280.889"/>
<path fill="#202020" d="M307.935,288.416c-0.195-1.359-43.672-5.822-58.422-7.57c-40.412-4.785-57.266-13.739-61.916-15.528
	c-4.648-1.787-7.383,0.043-9.314,2.524c-1.934,2.482,1.269,8.439,17.466,28.338c15.924,19.56,28.346,30.625,38.819,30.859
	c4.668,0.104,18.267-13.947,32.599-23.637C291.629,286.863,308.903,290.939,307.935,288.416"/>
<path fill="#202020" d="M366.153,303.014c0,0-16.297-2.178-26.391-3.729c-9.367-1.441-26.769-7.183-40.765-3.646
	c-20.565,5.197-41.147,23.291-52.397,31.982c-11.25,8.694-33.383,18.633-38.041,19.411c-4.176,0.693-4.818,3.168-5.054,5.67
	c-0.379,4.033,28.261,22.226,64.05,20.96c39.602-1.4,63.274-21.736,74.926-40.994C354.133,313.412,366.153,303.014,366.153,303.014"
	/>
<path fill="#202020" d="M405.343,128.895c0-3.738,3.033-6.771,6.771-6.771c3.741,0,6.771,3.033,6.771,6.771
	c0,3.742-3.03,6.773-6.771,6.773C408.376,135.667,405.343,132.636,405.343,128.895"/>
<path fill="#202020" d="M415.438,141.25c0-3.646,2.955-6.602,6.602-6.602s6.604,2.956,6.604,6.602s-2.957,6.604-6.604,6.604
	C418.395,147.854,415.438,144.896,415.438,141.25"/>
<path fill="#202020" d="M422.425,127.105c0-2.988,2.424-5.414,5.412-5.414c2.99,0,5.414,2.426,5.414,5.414
	c0,2.992-2.424,5.414-5.414,5.414C424.849,132.519,422.425,130.097,422.425,127.105"/>
<path fill="#202020" d="M435.665,136.402c0-3.621,2.934-6.559,6.555-6.559s6.561,2.938,6.561,6.559c0,3.621-2.938,6.557-6.561,6.557
	S435.665,140.023,435.665,136.402"/>
<path fill="#202020" d="M459.306,157.018c2.186,1.342,5.438,6.018,6.796,5.24c1.44-0.822,1.165-3.687,1.757-6.17
	c0.6-2.531-0.018-8.408-0.018-8.408c0.052-4.299-3.438-7.783-7.732-7.783c-4.303,0-7.785,3.484-7.785,7.783
	c0,1.91,1.355,4.68,1.754,5.109C454.47,153.218,456.784,155.464,459.306,157.018"/>
<path fill="#202020" d="M434.931,163.961c1.824,1.801,3.941,7.086,5.438,6.635c1.591-0.477,1.968-3.33,3.103-5.615
	c1.152-2.332,1.875-8.198,1.875-8.198c1.018-4.177-1.598-8.357-5.787-9.324c-4.188-0.967-8.365,1.645-9.334,5.834
	c-0.43,1.863,0.271,4.865,0.561,5.371C431.071,159.174,432.821,161.883,434.931,163.961"/>
<path fill="#202020" d="M410.786,167.303c1.487,2.084,3.317,7.5,4.853,7.182c1.625-0.336,2.267-3.864,3.594-6.041
	c1.354-2.223,2.585-8.002,2.585-8.002c1.373-4.075-0.865-8.465-4.951-9.795c-4.091-1.326-8.48,0.91-9.81,5
	c-0.59,1.816-0.155,4.869,0.091,5.4C407.388,161.578,408.845,164.585,410.786,167.303"/>
<path fill="#202020" d="M478.911,175.262c1.824,2.582,4.68,11.738,6.406,10.869c1.827-0.922,3.197-10.146,4.086-13.17
	c0.907-3.084,0.525-10.373,0.525-10.373c0.336-5.299-3.736-9.824-9.041-10.101c-5.303-0.28-9.825,3.795-10.104,9.097
	c-0.125,2.358,1.793,5.987,2.301,6.498C474.725,169.712,476.583,171.962,478.911,175.262"/>
<path fill="#202020" d="M452.517,184.771c1.648,2.947,3.775,12.01,5.628,11.451c1.964-0.59,4.425-7.851,5.823-10.674
	c1.429-2.881,1.896-10.648,1.896-10.648c1.012-5.268-1.975-10.324-7.148-11.52c-5.176-1.193-10.336,2.032-11.53,7.207
	c-0.53,2.299,0.479,5.645,1.06,6.809C449.634,180.171,450.727,181.58,452.517,184.771"/>
<path fill="#202020" d="M425.927,191.371c1.41,2.828,3.734,12.816,5.627,12.422c2.004-0.416,4.936-8.41,6.02-11.065
	c1.213-2.974,2.523-10.205,2.523-10.205c1.699-5.033-1.062-10.457-6.113-12.099c-5.053-1.639-10.479,1.123-12.117,6.174
	c-0.729,2.244-0.189,6.015,0.112,6.671C422.278,183.926,423.983,187.488,425.927,191.371"/>
<path fill="#202020" d="M497.739,205.734c1.42,3.414,1.502,11.646,3.684,11.063c2.914-0.778,8.561-11.512,9.9-14.946
	c1.746-4.465,1.941-11.644,1.941-11.644c0.396-6.202-4.219-11.787-10.426-12.114c-6.203-0.324-11.498,4.442-11.826,10.649
	c-0.143,2.758,2.102,7.004,2.697,7.601C495.622,198.255,495.796,201.074,497.739,205.734"/>
<path fill="#202020" d="M472.896,215.438c1.93,3.449,4.432,11.521,6.598,10.869c2.297-0.689,3.494-7.18,4.854-10.674
	c1.361-3.508,2.133-11.84,2.133-11.84c1.188-6.164-1.979-12.521-8.031-13.919c-6.057-1.399-12.1,2.377-13.496,8.433
	c-0.621,2.692,0.562,6.606,1.242,7.969C467.817,209.523,470.8,211.704,472.896,215.438"/>
<path fill="#202020" d="M441.829,221.699c1.652,3.309,4.371,14.996,6.586,14.535c2.346-0.488,5.772-9.84,7.039-12.945
	c1.422-3.483,2.959-11.945,2.959-11.945c1.986-5.889-1.248-12.237-7.158-14.157c-5.908-1.92-12.258,1.315-14.18,7.225
	c-0.854,2.625-0.219,7.039,0.133,7.807C437.56,212.986,439.558,217.156,441.829,221.699"/>
<path fill="#202020" d="M414.28,228.443c1.651,3.307,2.829,10.939,5.045,10.48c2.348-0.488,5.723-6.212,6.987-9.316
	c1.421-3.482,3.298-11.451,3.298-11.451c1.988-5.891-0.798-12.922-6.705-14.842c-5.912-1.92-12.261,1.315-14.181,7.225
	c-0.854,2.627-0.224,7.039,0.129,7.806C409.206,219.113,412.007,223.9,414.28,228.443"/>
<path fill="#202020" d="M534.009,216.363c0.023-6.648-5.364-12.037-12.012-12.037c-6.652,0-12.039,5.389-12.039,12.037
	c0,2.561,0.395,5.092,1.365,7.227c0,0,3.896,9.98,0.592,22.75c-3.31,12.767-7.367,20.615-13.781,28.531
	s-13.387,11.301-12.615,13.004c0.77,1.707,23.865-7.03,38.039-35.324C536.771,226.179,534.009,216.363,534.009,216.363"/>
<path fill="#202020" d="M506.544,233.346c0.719-6.609-4.078-12.533-10.688-13.229c-6.608-0.693-12.532,4.102-13.229,10.713
	c-0.269,2.549-0.576,5.286,0.168,7.51c0,0,1.164,11.062-2.912,22.127c-4.559,12.375-8.32,19.193-15.525,26.397
	c-7.205,7.201-8.352,7.345-7.766,9.121c0.586,1.777,18.732-2.059,36.686-25.035C507.831,252.316,506.544,233.346,506.544,233.346"/>
<path fill="#202020" d="M476.023,242.617c0.835-6.596-3.858-12.602-10.456-13.412c-6.6-0.811-12.604,3.883-13.414,10.482
	c-0.312,2.541-0.027,5.059,0.036,7.512c0,0,0.511,10.934-2.976,22.195c-4.725,15.266-14.75,26.59-14.171,29.116
	c0.395,1.701,10.29-0.971,26.979-20.77C475.354,261.933,476.023,242.617,476.023,242.617"/>
<path fill="#202020" d="M446.12,248.162c0.834-6.594-3.857-12.6-10.455-13.41c-6.603-0.811-12.607,3.881-13.416,10.478
	c-0.315,2.543-0.025,5.061,0.035,7.512c0,0-0.438,17.623-5.482,31.598c-0.102,0.287,13.006,9.316,13.006,9.316
	C445.335,271.529,446.12,248.162,446.12,248.162"/>
<path fill="#202020" d="M510.362,280.889c0,0,5.248-4.035,9.702-10.094c4.455-6.056,18.778-34.849,35.511-52.252
	c19.41-20.185,50.073-29.695,59.594-28.877c4.119,0.354,5.396,1.801,6.398,4.811c0.969,2.91-2.639,6.766-7.178,10.328
	c-11.068,8.691-21.534,30.514-27.172,41.535c-5.637,11.022-11.441,21.199-13.975,24.455c-2.529,3.26-25.594,4.807-32.808,5.975
	C533.255,277.936,510.362,280.889,510.362,280.889"/>
<path fill="#202020" d="M497.349,288.416c0.195-1.359,43.671-5.822,58.423-7.57c40.409-4.785,57.263-13.739,61.914-15.528
	c4.649-1.787,7.384,0.043,9.315,2.524c1.935,2.482-1.271,8.439-17.469,28.338c-15.922,19.56-28.345,30.625-38.816,30.859
	c-4.666,0.104-18.27-13.947-32.602-23.637C513.653,286.863,496.38,290.939,497.349,288.416"/>
<path fill="#202020" d="M439.13,303.014c0,0,16.297-2.178,26.387-3.729c9.371-1.441,26.773-7.183,40.77-3.646
	c20.565,5.197,41.146,23.291,52.396,31.982c11.25,8.694,33.387,18.633,38.043,19.411c4.178,0.693,4.816,3.168,5.057,5.67
	c0.379,4.033-28.264,22.226-64.051,20.96c-39.604-1.4-63.273-21.736-74.928-40.994C451.146,313.412,439.13,303.014,439.13,303.014"
	/>
<path fill="#202020" d="M396.114,143.562c0-3.74,3.033-6.771,6.773-6.771c3.739,0,6.774,3.031,6.774,6.771s-3.035,6.771-6.774,6.771
	C399.147,150.333,396.114,147.302,396.114,143.562"/>
<path fill="#202020" d="M407.89,195.447c-1.414,2.826-3.105,9.705-5.436,9.705c-2.046,0-4.544-7.246-5.627-9.9
	c-1.214-2.977-2.894-10.055-2.894-10.055c-1.697-5.031,1.082-10.408,6.117-12.098c5.129-1.72,10.476,1.123,12.115,6.174
	c0.729,2.244-0.287,6.59-0.59,7.246C411.277,187.174,409.829,191.566,407.89,195.447"/>
<path fill="#202020" d="M402.462,237.328c6.416,0.062,11.414,4.703,12.229,12.615c1.172,11.41-4.076,32.026-4.076,32.026
	s-3.875-2.176-7.57-1.94c-3.687,0.235-7.375,2.135-7.375,2.135s-6.469-19.371-5.627-31.055
	C390.825,240.199,398.2,237.287,402.462,237.328"/>
<path fill="#202020" d="M402.843,286.324c-6.98-0.043-17.273,6.211-35.123,26.936c-17.848,20.726-20.565,29.654-26.008,34.742
	c-3.285,3.07-7.965,8.58-7.965,8.58s2.698,2.984,14.946,2.717c28.732-0.623,39.392-12.614,53.761-12.657
	c14.372,0.043,25.403,12.034,54.137,12.657c12.25,0.269,14.945-2.717,14.945-2.717s-4.681-5.51-7.967-8.58
	c-5.439-5.088-8.158-14.018-26.007-34.742C419.716,292.535,409.825,286.281,402.843,286.324"/>
<path fill="#202020" d="M418.152,358.094c-0.202-2.176-2.911-3.688-5.618-4.811c-1.324-0.548-6.586-1.515-10.08-1.552
	c-3.492,0.037-7.992,1.004-9.317,1.552c-2.709,1.123-5.418,2.635-5.621,4.811c-0.191,2.094,0.963,2.371,2.33,4.658
	c1.368,2.287,1.741,4.506,1.741,4.506v105.584c0,3.521,5.036,6.373,11.248,6.373s11.248-2.854,11.248-6.373V367.258
	c0,0,0.375-2.219,1.742-4.506C417.188,360.465,418.348,360.188,418.152,358.094"/>
<path fill="#202020" d="M171.238,589.551l20.808-61.76h8.457l20.429,61.76h-7.507l-6.461-19.003h-24.229l-6.462,19.003H171.238z
	 M184.065,566.652h21.664L194.992,533.3L184.065,566.652z"/>
<path fill="#202020" d="M230.917,584.801c-3.643-3.801-5.463-8.933-5.463-15.394v-41.616h7.126v40.002
	c0,5.765,1.266,10.183,3.801,13.255c2.533,3.072,6.238,4.607,11.117,4.607c5.067,0,8.884-1.567,11.449-4.703
	c2.566-3.135,3.848-7.521,3.848-13.159v-40.002h5.226v41.616c0,6.461-1.774,11.593-5.32,15.394
	c-3.549,3.801-8.87,5.701-15.963,5.701C239.833,590.502,234.559,588.602,230.917,584.801"/>
<path fill="#202020" d="M283.205,588.696c-2.724-1.202-4.736-2.485-6.034-3.85c-1.299-1.359-1.947-2.17-1.947-2.424l2.375-3.706
	c0,0.191,0.602,0.903,1.805,2.141c1.203,1.232,2.961,2.375,5.274,3.421c2.312,1.045,5.146,1.564,8.504,1.564
	c3.991,0,7.126-1.151,9.407-3.467c2.28-2.312,3.42-5.179,3.42-8.599c0-2.345-0.57-4.311-1.71-5.895
	c-1.14-1.582-2.551-2.85-4.228-3.8c-1.679-0.951-3.944-2.026-6.794-3.229c-3.295-1.33-5.955-2.6-7.982-3.804
	c-2.028-1.201-3.738-2.862-5.131-4.985c-1.394-2.121-2.09-4.829-2.09-8.124c0-5.193,1.647-9.326,4.941-12.399
	c3.293-3.073,7.696-4.608,13.208-4.608c2.722,0,5.178,0.396,7.363,1.188c2.186,0.793,3.944,1.648,5.274,2.564
	c1.33,0.92,1.995,1.44,1.995,1.566l-0.95,4.184c0-0.128-0.634-0.636-1.9-1.521c-1.268-0.887-2.883-1.711-4.846-2.471
	c-1.964-0.761-4.15-1.143-6.557-1.143c-3.548,0-6.335,0.983-8.361,2.946c-2.028,1.964-3.04,4.624-3.04,7.981
	c0,2.344,0.553,4.292,1.662,5.844c1.108,1.553,2.502,2.803,4.181,3.753c1.678,0.95,3.911,1.995,6.699,3.136
	c3.357,1.396,6.048,2.708,8.076,3.942c2.027,1.233,3.753,2.962,5.178,5.179c1.426,2.218,2.139,5.068,2.139,8.551
	c0,3.485-0.808,6.573-2.423,9.268c-1.616,2.689-3.912,4.798-6.889,6.315c-2.979,1.521-6.43,2.281-10.357,2.281
	C289.349,590.502,285.928,589.899,283.205,588.696"/>
<polygon fill="#202020" points="334.181,589.552 334.181,532.352 316.603,532.352 316.603,527.791 359.076,527.791 359.076,532.352 
	341.403,532.352 341.403,589.552 "/>
<path fill="#202020" d="M365.803,527.791h14.917c6.271,0,11.18,1.631,14.729,4.893c3.547,3.265,5.321,7.937,5.321,14.018
	c0,4.878-1.045,8.868-3.136,11.972c-2.09,3.104-4.846,5.321-8.266,6.65l15.487,24.229h-8.266l-14.158-22.898h-9.406v22.898h-7.221
	L365.803,527.791L365.803,527.791z M380.72,562.377c4.117,0,7.222-1.172,9.312-3.517c2.09-2.344,3.135-6.304,3.135-11.877
	c0-10.01-4.434-15.014-13.302-15.014h-6.841v30.405L380.72,562.377L380.72,562.377z"/>
<path fill="#202020" d="M409.699,589.551l20.808-61.76h8.457l20.431,61.76h-7.508l-6.461-19.003h-24.229l-6.461,19.003H409.699z
	 M422.526,566.652h21.664L433.453,533.3L422.526,566.652z"/>
<polygon fill="#202020" points="466.708,589.552 466.708,527.791 473.93,527.791 473.93,584.99 501.39,584.99 501.39,589.552 "/>
<rect x="508.325" y="527.791" fill="#202020" width="7.222" height="61.761"/>
<path fill="#202020" d="M523.006,589.551l20.809-61.76h8.457l20.431,61.76h-7.508l-6.462-19.003h-24.229l-6.461,19.003H523.006z
	 M535.833,566.652h21.664L546.76,533.3L535.833,566.652z"/>
<polygon fill="#202020" points="580.016,589.552 580.016,527.791 587.521,527.791 619.067,578.72 618.782,576.439 618.782,527.791 
	624.009,527.791 624.009,589.552 617.737,589.552 584.861,536.911 584.768,536.911 585.241,539.857 585.241,589.552 "/>
<polygon fill="#202020" points="224.405,785.04 224.405,723.279 257.661,723.279 257.661,727.84 231.626,727.84 231.626,751.594 
	255.476,751.594 255.476,755.965 231.626,755.965 231.626,780.479 259.751,780.479 259.751,785.04 "/>
<path fill="#202020" d="M272.683,784.185c-2.724-1.2-4.736-2.483-6.034-3.849c-1.299-1.36-1.947-2.169-1.947-2.423l2.375-3.706
	c0,0.191,0.602,0.903,1.805,2.139c1.203,1.234,2.961,2.376,5.274,3.421c2.312,1.047,5.146,1.566,8.504,1.566
	c3.991,0,7.126-1.153,9.407-3.467c2.28-2.312,3.42-5.179,3.42-8.601c0-2.343-0.57-4.309-1.71-5.893
	c-1.14-1.582-2.551-2.85-4.228-3.8c-1.679-0.951-3.944-2.026-6.794-3.23c-3.295-1.33-5.955-2.598-7.982-3.802
	c-2.028-1.201-3.738-2.864-5.131-4.987c-1.394-2.12-2.09-4.827-2.09-8.124c0-5.191,1.647-9.324,4.941-12.397
	c3.293-3.073,7.696-4.608,13.208-4.608c2.722,0,5.178,0.396,7.363,1.188c2.186,0.793,3.944,1.646,5.274,2.563
	c1.33,0.919,1.995,1.441,1.995,1.567l-0.95,4.182c0-0.127-0.634-0.634-1.9-1.521c-1.268-0.889-2.883-1.711-4.846-2.473
	c-1.964-0.76-4.15-1.141-6.557-1.141c-3.548,0-6.335,0.983-8.361,2.946c-2.028,1.964-3.04,4.624-3.04,7.979
	c0,2.346,0.553,4.292,1.662,5.846c1.108,1.553,2.502,2.803,4.181,3.753c1.678,0.949,3.911,1.995,6.699,3.136
	c3.357,1.394,6.048,2.708,8.076,3.941c2.027,1.234,3.753,2.963,5.178,5.18c1.426,2.218,2.139,5.067,2.139,8.551
	c0,3.485-0.808,6.573-2.423,9.266c-1.616,2.691-3.912,4.8-6.889,6.317c-2.978,1.521-6.43,2.281-10.357,2.281
	C278.827,785.99,275.406,785.388,272.683,784.185"/>
<path fill="#202020" d="M315.335,784.185c-2.724-1.2-4.736-2.483-6.034-3.849c-1.299-1.36-1.947-2.169-1.947-2.423l2.375-3.706
	c0,0.191,0.602,0.903,1.805,2.139c1.203,1.234,2.961,2.376,5.274,3.421c2.312,1.047,5.146,1.566,8.504,1.566
	c3.991,0,7.126-1.153,9.407-3.467c2.28-2.312,3.42-5.179,3.42-8.601c0-2.343-0.57-4.309-1.71-5.893
	c-1.14-1.582-2.551-2.85-4.228-3.8c-1.679-0.951-3.944-2.026-6.794-3.23c-3.295-1.33-5.955-2.598-7.982-3.802
	c-2.028-1.201-3.738-2.864-5.131-4.987c-1.394-2.12-2.09-4.827-2.09-8.124c0-5.191,1.647-9.324,4.941-12.397
	c3.293-3.073,7.696-4.608,13.208-4.608c2.722,0,5.178,0.396,7.363,1.188c2.186,0.793,3.944,1.646,5.274,2.563
	c1.33,0.919,1.995,1.441,1.995,1.567l-0.95,4.182c0-0.127-0.634-0.634-1.9-1.521c-1.268-0.889-2.883-1.711-4.846-2.473
	c-1.964-0.76-4.15-1.141-6.557-1.141c-3.548,0-6.335,0.983-8.361,2.946c-2.028,1.964-3.04,4.624-3.04,7.979
	c0,2.346,0.553,4.292,1.662,5.846c1.108,1.553,2.502,2.803,4.181,3.753c1.678,0.949,3.911,1.995,6.699,3.136
	c3.357,1.394,6.048,2.708,8.076,3.941c2.027,1.234,3.753,2.963,5.178,5.18c1.426,2.218,2.139,5.067,2.139,8.551
	c0,3.485-0.808,6.573-2.423,9.266c-1.616,2.691-3.912,4.8-6.889,6.317c-2.978,1.521-6.43,2.281-10.357,2.281
	C321.479,785.99,318.058,785.388,315.335,784.185"/>
<polygon fill="#202020" points="353.37,785.04 353.37,723.279 386.625,723.279 386.625,727.84 360.591,727.84 360.591,751.594 
	384.44,751.594 384.44,755.965 360.591,755.965 360.591,780.479 388.716,780.479 388.716,785.04 "/>
<polygon fill="#202020" points="396.326,785.04 396.326,723.279 403.832,723.279 435.377,774.208 435.092,771.928 435.092,723.279 
	440.318,723.279 440.318,785.04 434.047,785.04 401.172,732.399 401.077,732.399 401.552,735.346 401.552,785.04 "/>
<path fill="#202020" d="M456.612,777.676c-4.751-5.542-7.127-13.188-7.127-22.944c0-6.523,1.093-12.227,3.276-17.104
	c2.188-4.877,5.288-8.631,9.312-11.26c4.021-2.628,8.693-3.942,14.016-3.942c2.912,0,5.716,0.38,8.408,1.142
	c2.691,0.76,4.989,1.613,6.89,2.563c1.9,0.949,2.852,1.458,2.852,1.521l-0.854,4.561c0-0.062-0.919-0.537-2.756-1.426
	c-1.838-0.886-3.976-1.71-6.413-2.47c-2.438-0.762-4.894-1.142-7.364-1.142c-6.145,0-10.96,2.328-14.44,6.982
	c-3.484,4.657-5.229,11.45-5.229,20.381c0,8.807,1.773,15.457,5.321,19.954c3.547,4.498,8.52,6.746,14.918,6.746
	c3.356,0,6.302-0.695,8.836-2.091c2.533-1.393,4.545-2.882,6.034-4.466c1.487-1.583,2.231-2.502,2.231-2.756l2.662,3.04
	c0,0.317-0.824,1.411-2.473,3.277c-1.646,1.869-4.007,3.627-7.08,5.272c-3.07,1.646-6.762,2.472-11.066,2.472
	C468.014,785.989,461.362,783.22,456.612,777.676"/>
<polygon fill="#202020" points="503.844,785.04 503.844,723.279 537.1,723.279 537.1,727.84 511.064,727.84 511.064,751.594 
	534.914,751.594 534.914,755.965 511.064,755.965 511.064,780.479 539.189,780.479 539.189,785.04 "/>
<path fill="#202020" d="M552.121,784.185c-2.725-1.2-4.736-2.483-6.033-3.849c-1.3-1.36-1.948-2.169-1.948-2.423l2.376-3.706
	c0,0.191,0.603,0.903,1.807,2.139c1.201,1.234,2.961,2.376,5.271,3.421c2.312,1.047,5.146,1.566,8.504,1.566
	c3.991,0,7.127-1.153,9.407-3.467c2.28-2.312,3.421-5.179,3.421-8.601c0-2.343-0.57-4.309-1.711-5.893
	c-1.14-1.582-2.551-2.85-4.229-3.8c-1.681-0.951-3.942-2.026-6.793-3.23c-3.295-1.33-5.955-2.598-7.981-3.802
	c-2.029-1.201-3.738-2.864-5.131-4.987c-1.396-2.12-2.091-4.827-2.091-8.124c0-5.191,1.646-9.324,4.939-12.397
	c3.292-3.073,7.696-4.608,13.207-4.608c2.725,0,5.18,0.396,7.363,1.188c2.186,0.793,3.941,1.646,5.271,2.563
	c1.331,0.919,1.996,1.441,1.996,1.567l-0.949,4.182c0-0.127-0.635-0.634-1.899-1.521c-1.271-0.889-2.884-1.711-4.847-2.473
	c-1.966-0.76-4.149-1.141-6.558-1.141c-3.548,0-6.336,0.983-8.36,2.946c-2.027,1.964-3.041,4.624-3.041,7.979
	c0,2.346,0.555,4.292,1.662,5.846c1.107,1.553,2.502,2.803,4.183,3.753c1.678,0.949,3.911,1.995,6.698,3.136
	c3.355,1.394,6.049,2.708,8.075,3.941c2.026,1.234,3.753,2.963,5.181,5.18c1.425,2.218,2.138,5.067,2.138,8.551
	c0,3.485-0.808,6.573-2.423,9.266c-1.615,2.691-3.912,4.8-6.891,6.317c-2.979,1.521-6.431,2.281-10.355,2.281
	C558.265,785.99,554.844,785.388,552.121,784.185"/>
<path fill="#202020" d="M596.909,750.617c-2.25-1.311-3.957-3.147-5.121-5.521c-1.163-2.371-1.745-5.161-1.745-8.37
	c0-3.173,0.602-5.964,1.804-8.369s2.931-4.265,5.182-5.57c2.249-1.311,4.888-1.962,7.914-1.962c3.023,0,5.664,0.651,7.914,1.962
	c2.25,1.308,3.984,3.165,5.206,5.57c1.225,2.405,1.834,5.196,1.834,8.369c0,3.209-0.593,5.999-1.773,8.37
	c-1.186,2.372-2.9,4.211-5.15,5.521c-2.25,1.308-4.927,1.962-8.029,1.962C601.836,752.579,599.159,751.925,596.909,750.617
	 M614.251,746.98c2.25-2.478,3.375-5.879,3.375-10.2c0-4.359-1.125-7.812-3.375-10.358s-5.354-3.818-9.312-3.818
	s-7.053,1.272-9.281,3.818c-2.231,2.546-3.349,5.999-3.349,10.358c0,4.357,1.106,7.769,3.317,10.227
	c2.212,2.459,5.314,3.688,9.312,3.688C608.896,750.695,612.001,749.458,614.251,746.98 M600.168,728.462h4.83
	c4.384,0,6.576,1.569,6.576,4.708c0,1.291-0.359,2.347-1.076,3.165c-0.719,0.82-1.698,1.387-2.939,1.7l3.843,7.011h-2.503
	l-3.666-6.696h-2.795v6.696h-2.27V728.462z M604.998,737.041c1.241,0,2.229-0.305,2.968-0.915c0.737-0.609,1.106-1.596,1.106-2.956
	c0-1.15-0.33-1.987-0.989-2.511c-0.66-0.523-1.688-0.785-3.085-0.785h-2.562v7.167H604.998L604.998,737.041z"/>
<path fill="#202020" d="M0,607.599h24.774c9.869,0,17.497,2.242,22.886,6.725c5.387,4.48,8.082,10.397,8.082,17.75
	c0,5.438-1.359,9.969-4.079,13.595c-2.719,3.625-6.094,6.496-10.121,8.611c5.84,1.61,10.447,4.432,13.823,8.46
	c3.373,4.026,5.06,9.114,5.06,15.257c0,8.863-2.946,15.711-8.837,20.545c-5.892,4.833-14.781,7.25-26.663,7.25H0V607.599z
	 M29.306,652.012c2.115,0,4.355-0.604,6.722-1.812c2.365-1.208,4.405-3.247,6.118-6.118c1.712-2.871,2.569-6.621,2.569-11.254
	c0-6.144-1.865-10.775-5.59-13.897c-3.727-3.12-8.662-4.684-14.804-4.684H11.48v37.767L29.306,652.012L29.306,652.012z
	 M24.472,699.144c16.414,0,24.623-7.197,24.623-21.604c0-6.442-1.763-11.276-5.287-14.501c-3.526-3.222-8.157-4.834-13.898-4.834
	H11.48v40.938L24.472,699.144L24.472,699.144z"/>
<path fill="#202020" d="M79.504,698.237c-5.792-6.043-8.686-14.2-8.686-24.475v-66.166h11.33v63.6
	c0,9.165,2.013,16.188,6.042,21.071c4.027,4.889,9.918,7.326,17.674,7.326c8.057,0,14.125-2.492,18.203-7.477
	c4.08-4.986,6.119-11.958,6.119-20.923v-63.6h8.308v66.166c0,10.272-2.821,18.432-8.459,24.475
	c-5.642,6.042-14.101,9.062-25.379,9.062C93.678,707.3,85.294,704.279,79.504,698.237"/>
<path fill="#202020" d="M159.007,704.431c-4.331-1.911-7.529-3.949-9.592-6.116c-2.066-2.165-3.097-3.448-3.097-3.854l3.776-5.891
	c0,0.302,0.956,1.436,2.871,3.397c1.912,1.964,4.706,3.775,8.384,5.438c3.675,1.661,8.181,2.492,13.52,2.492
	c6.345,0,11.329-1.837,14.955-5.516c3.626-3.676,5.438-8.231,5.438-13.671c0-3.725-0.906-6.848-2.719-9.366
	c-1.812-2.518-4.055-4.53-6.722-6.043c-2.669-1.511-6.271-3.223-10.801-5.136c-5.238-2.115-9.468-4.129-12.689-6.044
	c-3.225-1.91-5.944-4.555-8.158-7.93c-2.216-3.373-3.323-7.68-3.323-12.916c0-8.259,2.617-14.828,7.855-19.716
	c5.236-4.884,12.236-7.324,20.998-7.324c4.329,0,8.233,0.629,11.707,1.887c3.475,1.262,6.269,2.62,8.385,4.079
	c2.114,1.461,3.171,2.292,3.171,2.493l-1.51,6.646c0-0.201-1.008-1.006-3.021-2.417c-2.016-1.409-4.584-2.721-7.704-3.929
	c-3.123-1.209-6.598-1.812-10.424-1.812c-5.641,0-10.071,1.562-13.294,4.684c-3.224,3.123-4.834,7.354-4.834,12.688
	c0,3.728,0.881,6.823,2.644,9.29c1.761,2.47,3.977,4.457,6.647,5.967c2.667,1.512,6.217,3.175,10.65,4.985
	c5.337,2.217,9.616,4.306,12.84,6.271c3.222,1.964,5.967,4.709,8.234,8.231c2.265,3.525,3.398,8.06,3.398,13.596
	c0,5.54-1.284,10.449-3.852,14.729c-2.568,4.28-6.219,7.628-10.952,10.045c-4.735,2.417-10.223,3.626-16.466,3.626
	C168.775,707.301,163.336,706.343,159.007,704.431"/>
<polygon fill="#202020" points="216.758,705.79 216.758,607.599 228.238,607.599 228.238,651.709 273.105,651.709 273.105,607.599 
	284.585,607.599 284.585,705.79 273.105,705.79 273.105,658.658 228.238,658.658 228.238,705.79 "/>
<polygon fill="#202020" points="360.113,705.79 360.113,607.599 414.042,607.599 414.042,614.85 371.593,614.85 371.593,653.976 
	408.15,653.976 408.15,660.924 371.593,660.924 371.593,705.79 "/>
<polygon fill="#202020" points="421.52,705.79 421.52,607.599 432.999,607.599 432.999,698.539 476.656,698.539 476.656,705.79 "/>
<path fill="#202020" d="M492.88,701.257c-6.296-4.023-11.104-9.842-14.427-17.446c-3.323-7.603-4.985-16.591-4.985-26.965
	c0-10.372,1.662-19.358,4.985-26.966c3.323-7.602,8.131-13.444,14.427-17.521c6.292-4.079,13.822-6.118,22.584-6.118
	c8.761,0,16.314,2.039,22.659,6.118c6.345,4.076,11.202,9.921,14.578,17.521c3.372,7.605,5.061,16.594,5.061,26.966
	c0,10.374-1.688,19.362-5.061,26.965c-3.376,7.604-8.233,13.423-14.578,17.446c-6.345,4.03-13.898,6.043-22.659,6.043
	C506.702,707.3,499.172,705.287,492.88,701.257 M537.745,689.021c5.186-7.353,7.78-18.075,7.78-32.178
	c0-13.997-2.597-24.723-7.78-32.178c-5.188-7.452-12.613-11.178-22.281-11.178c-9.569,0-16.92,3.726-22.056,11.178
	c-5.137,7.455-7.704,18.181-7.704,32.178c0,14.103,2.542,24.825,7.629,32.178c5.084,7.354,12.463,11.025,22.131,11.025
	S532.558,696.375,537.745,689.021"/>
<polygon fill="#202020" points="583.984,705.79 556.943,607.599 569.028,607.599 591.386,692.646 615.405,607.599 625.526,607.599 
	649.999,692.496 671.752,607.599 680.212,607.599 653.775,705.79 643.201,705.79 618.729,622.101 594.559,705.79 "/>
<polygon fill="#202020" points="687.885,705.79 687.885,607.599 740.757,607.599 740.757,614.85 699.364,614.85 699.364,652.615 
	737.282,652.615 737.282,659.562 699.364,659.562 699.364,698.539 744.08,698.539 744.08,705.79 "/>
<path fill="#202020" d="M753.46,607.599h23.717c9.97,0,17.773,2.595,23.415,7.78c5.639,5.188,8.459,12.613,8.459,22.281
	c0,7.757-1.661,14.101-4.984,19.033c-3.323,4.937-7.703,8.46-13.143,10.573l24.623,38.521h-13.143l-22.511-36.406h-14.954v36.406
	H753.46V607.599z M777.177,662.586c6.545,0,11.48-1.862,14.807-5.59c3.321-3.725,4.982-10.021,4.982-18.884
	c0-15.91-7.05-23.867-21.146-23.867h-10.88v48.341H777.177z"/>
</svg>
